<?xml version="1.0" standalone="no"?><!DOCTYPE svg PUBLIC "-//W3C//DTD SVG 1.1//EN" "http://www.w3.org/Graphics/SVG/1.1/DTD/svg11.dtd"><svg t="1746960975086" class="icon" viewBox="0 0 1024 1024" version="1.1" xmlns="http://www.w3.org/2000/svg" p-id="4533" data-spm-anchor-id="a313x.search_index.0.i10.7e783a81usqZPy" xmlns:xlink="http://www.w3.org/1999/xlink" width="200" height="200"><path d="M993.792 530.432H30.208c-10.752 0-19.968-8.704-19.968-19.968s8.704-19.968 19.968-19.968h963.584c10.752 0 19.968 8.704 19.968 19.968s-8.704 19.968-19.968 19.968zM747.52 408.576H275.456c-19.968 0-37.376-13.312-42.496-32.256L163.328 127.488c-3.584-13.312-1.024-27.136 7.168-37.888 8.704-11.264 21.504-17.408 35.328-17.408h610.816c13.824 0 27.136 6.144 35.328 17.408 8.192 10.752 10.752 24.576 7.168 37.888l-69.12 248.832c-5.12 19.456-22.528 32.256-42.496 32.256zM206.336 112.128c-2.048 0-3.072 1.024-4.096 2.048-0.512 1.024-1.024 2.048-0.512 3.072l69.12 248.832c0.512 2.048 2.56 3.072 4.608 3.072H747.52c2.048 0 4.096-1.536 4.608-3.072l69.12-248.832c0.512-1.024 0-2.048-0.512-3.072-0.512-0.512-1.536-2.048-3.584-2.048H206.336z" fill="#333333" p-id="4534" data-spm-anchor-id="a313x.search_index.0.i7.7e783a81usqZPy" class=""></path><path d="M728.576 346.624H293.888L231.936 134.144h559.104z" fill="#cef5dc" p-id="4535" data-spm-anchor-id="a313x.search_index.0.i8.7e783a81usqZPy" class="selected"></path><path d="M800.256 951.808H189.44c-13.824 0-27.136-6.144-35.328-17.408-8.192-10.752-10.752-24.576-7.168-37.888l69.12-248.832c5.12-18.944 23.04-32.256 42.496-32.256h472.064c19.968 0 37.376 13.312 42.496 32.256l69.12 248.832c3.584 13.312 1.024 27.136-7.168 37.888-8.192 10.752-20.992 17.408-34.816 17.408z m-541.696-296.96c-2.048 0-4.096 1.024-4.608 3.072l-69.12 248.832c-0.512 1.024 0 2.048 0.512 3.072 0.512 0.512 1.536 2.048 3.584 2.048h610.816c2.048 0 3.072-1.024 3.584-2.048 0.512-1.024 1.024-2.048 0.512-3.072l-69.12-248.832c-0.512-2.048-2.56-3.072-4.608-3.072H258.56z" fill="#333333" p-id="4536"></path><path d="M277.504 677.376h434.688l61.952 212.48H215.552z" fill="#cef5dc" p-id="4537" data-spm-anchor-id="a313x.search_index.0.i9.7e783a81usqZPy" class="selected"></path></svg>